<svg xmlns="http://www.w3.org/2000/svg" xmlns:xlink="http://www.w3.org/1999/xlink" width="144.09" height="67.666" viewBox="0 0 144.09 67.666"><defs><style>.a{fill-rule:evenodd;fill:url(#a);}</style><linearGradient id="a" x1="0.5" x2="0.5" y2="1" gradientUnits="objectBoundingBox"><stop offset="0" stop-color="#ed1500"/><stop offset="1" stop-color="#d70900"/></linearGradient></defs><path class="a" d="M133.385,64.029l.051-.051V65.77a2.19,2.19,0,0,1-1.639.82c-.717,0-1.229-.256-1.229-1.076,0-1.229,1.332-1.537,2.049-1.537.1,0,.512.051.768.051Zm-75.093,0c.051.051.1.051.154-.051v1.742a2.19,2.19,0,0,1-1.69.871c-.666,0-1.178-.2-1.178-1.024,0-1.229,1.229-1.588,2-1.588a4.186,4.186,0,0,1,.717.051Zm-6.557.461c0,1.69-1.281,1.9-2.407,1.9a5.924,5.924,0,0,1-.871-.051V62.7a6.085,6.085,0,0,0,.973,0c1.281,0,2.305.256,2.305,1.793ZM39.8,62.082v3.893a1.885,1.885,0,0,1-1.281.563c-1.742,0-2.2-1.229-2.2-2.51,0-1.178.615-2.612,2.151-2.612a1.488,1.488,0,0,1,1.332.666Zm-8.3-.615a2.081,2.081,0,0,1,1.229,1.383v.256H28.941v-.154a1.9,1.9,0,0,1,1.947-1.537,2.94,2.94,0,0,1,.615.051Zm58.087,2.459c0,1.024-.307,2.612-1.9,2.612-1.639,0-1.793-1.639-1.793-2.561s.256-2.612,1.844-2.612S89.589,62.953,89.589,63.926Zm31.348-3.483v7.069h-1.229V61.468h-.973V60.443h2.2Zm-100.294,0v7.069H19.362V61.468h-.973V60.443h2.254Zm84.672,4H102.6l1.434-4.047Zm28.326-3.79c.666.256,1.127,1.537,1.127,2.1v3.329a1.222,1.222,0,0,0,.563.922v.615h-.615c-.41-.1-1.024-.461-1.127-.871a3.178,3.178,0,0,1-2.254.922,2.075,2.075,0,0,1-2.049-2.151c0-1.9,2.049-2.561,3.278-2.561.1,0,.564.1.871.154a.384.384,0,0,0,.051-.256,1.4,1.4,0,0,0-1.588-1.434,2.389,2.389,0,0,0-1.69.615,4.244,4.244,0,0,1-.563-1.025c0-.1.461-.358.666-.41a2.95,2.95,0,0,1,.871-.256,3.15,3.15,0,0,1,.666-.051,5.32,5.32,0,0,1,1.793.359Zm-5.378.358c-.154.256-.358.564-.563.871a2.913,2.913,0,0,0-1.69-.512c-1.793,0-2.2,1.537-2.2,2.664,0,1.485.717,2.561,2.254,2.561a3.344,3.344,0,0,0,1.742-.666l.512,1.024a5.54,5.54,0,0,1-2.51.717,3.354,3.354,0,0,1-3.278-2.715c0-.1-.051-.307-.051-.41v-.973a3.366,3.366,0,0,1,3.586-3.278,4.484,4.484,0,0,1,2.2.717Zm-10.091-.615-.461,1.229a4.905,4.905,0,0,0-.871-.256A1.851,1.851,0,0,0,115.2,63v4.508H113.92V60.443H115.2a6.2,6.2,0,0,0,.051.973A2.117,2.117,0,0,1,117.2,60.29a9.034,9.034,0,0,1,.973.1Zm-21.565.1c-.154.41-.307.768-.461,1.127a4.908,4.908,0,0,0-.871-.256A1.851,1.851,0,0,0,93.636,63v4.508H92.355V60.443h1.281a6.2,6.2,0,0,0,.051.973,2.117,2.117,0,0,1,1.947-1.127,4.952,4.952,0,0,1,.973.2Zm-5.686,3.432c0,1.793-.768,3.739-3.176,3.739-2.356,0-3.227-1.946-3.227-3.739,0-1.9,1.076-3.637,3.227-3.637C90.2,60.29,90.921,62.185,90.921,63.926Zm-25.3-3.586c.871,0,1.69,1.281,1.69,2.049v5.122H66.078V62.851a1.355,1.355,0,0,0-1.434-1.485c-.154,0-.256-.051-.307,0-.307.051-1.383.512-1.383.922v5.225H61.724V60.443h.871c.1.256.256.563.359.82A2.466,2.466,0,0,1,65,60.29c.1,0,.41.051.615.051ZM59.47,61.673c.051.256.256.666.256.82v3.329c.1.307.051.871.563,1.178v.615h-.563c-.359-.051-1.024-.359-1.127-.871-.307.615-1.793.922-2.305.922a2.108,2.108,0,0,1-2.049-2.151c0-1.9,2.049-2.561,3.278-2.561.1,0,.615.1.922.154.051-.051.051-.051.051-.2a1.425,1.425,0,0,0-1.588-1.485,2.25,2.25,0,0,0-1.69.615,2.614,2.614,0,0,1-.615-1.025,4.2,4.2,0,0,1,2.254-.717c.717,0,2.254.2,2.612,1.383ZM34.012,63.312a4.731,4.731,0,0,1-.051.768H28.839v.41a2.163,2.163,0,0,0,2.254,2.1,2.886,2.886,0,0,0,1.742-.615c.2.256.359.563.563.871a4.754,4.754,0,0,1-2.561.82,3.358,3.358,0,0,1-3.329-3.637,3.452,3.452,0,0,1,3.329-3.739,2.868,2.868,0,0,1,3.176,3.022ZM15.777,60.494a2.839,2.839,0,0,1,.717.666,4.767,4.767,0,0,1,.461,1.229v5.122H15.725V62.851c-.2-1.178-.615-1.485-1.434-1.485a2.05,2.05,0,0,0-1.69.922v5.225H11.372V60.443h.871c.1.256.256.563.359.82a2.466,2.466,0,0,1,2.049-.973,4.033,4.033,0,0,1,1.127.2Zm35.446-.307c0,1.332-1.127,1.485-2,1.485h-.768V58.907h.82c.768,0,1.946,0,1.946,1.281Zm-26.892.256h1.947v.973H24.331v4c.256.922.615,1.178,1.229,1.178a5.908,5.908,0,0,0,1.025-.256c.051.359.154.768.2,1.127-.563.1-1.588.2-1.742.2a2.108,2.108,0,0,1-2-2V61.416h-.82v-.973h.82V58.958a12.805,12.805,0,0,1,1.281-.461v1.946ZM4,57.831v6.557c.2,1.537,1.024,2.1,2.049,2.1a2.112,2.112,0,0,0,2.1-1.588V57.831H9.476v7.222c-.307,2.151-2.1,2.612-3.432,2.612a3.192,3.192,0,0,1-3.125-1.69,5.193,5.193,0,0,1-.2-.922V57.831H4Zm117.147.666a.741.741,0,0,1-.768.82.783.783,0,0,1-.768-.768.679.679,0,0,1,.768-.768.687.687,0,0,1,.768.717Zm-100.294,0a.84.84,0,0,1-.82.82.783.783,0,0,1-.768-.768.752.752,0,0,1,.768-.768.729.729,0,0,1,.82.717Zm31.758,1.588a2.142,2.142,0,0,1-1.383,1.947l-.051.1a2.451,2.451,0,0,1,2.049,2.561c0,.1-.1.563-.154.82-.154,1.127-1.946,2-2.817,2H47.074V57.728h2.408c1.383,0,3.125.41,3.125,2.356Zm51.633-2.407,3.688,9.835h-1.485c-.2-.666-.461-1.383-.717-2.049h-3.483a16.642,16.642,0,0,0-.768,2.049H99.987c1.281-3.278,2.612-6.557,3.893-9.835h.359Zm8.759.051a8.121,8.121,0,0,1-.41.922c-.154,0-.512-.1-.666-.1a1.4,1.4,0,0,0-1.332,1.537c0,.1.051.2.051.359h1.434v1.024h-1.434v6.044h-1.229V61.468h-1.024V60.443h1.024c-.051-1.69.82-2.92,2.407-2.92a9.477,9.477,0,0,1,1.178.2Zm-28.839,0-.307.922a4.015,4.015,0,0,0-.717-.1A1.42,1.42,0,0,0,81.8,59.726v.717h1.485v1.024H81.8v6.044H80.574V61.468H79.549V60.443h1.024c0-1.742.871-2.92,2.407-2.92a7.113,7.113,0,0,1,1.178.2Zm-13.779-.2v6.1l2.664-3.176h1.485l-2.2,2.664,2.715,4.405H73.659l-2.2-3.534c-.307.359-.717.768-1.076,1.127v2.407H69.1V57.523h1.281Zm-29.3,0v9.989H39.852a1.42,1.42,0,0,0-.051-.461,2.886,2.886,0,0,1-1.844.563c-2.254,0-3.022-1.9-3.022-3.483s1.076-3.842,3.278-3.842a3.468,3.468,0,0,1,1.639.461V57.524h1.229Zm6.4-24.177c3.022.666,4.354,2.356,4.354,4.713a8.226,8.226,0,0,1-.2,1.588,4.829,4.829,0,0,1-.922,1.588c-1.513,1.938-4.405,3.483-6.2,3.483H39.391c.82-3.739,1.537-7.581,2.356-11.269,0-.1.051-.154.154-.2l3.893-.1c.1,0,1.127.1,1.69.2Zm33.961,4.3H72.173L78.935,27.3ZM52.709,24.177c0,.1-.2,1.076-.256,1.588a5.374,5.374,0,0,1-2.51,3.534,20.476,20.476,0,0,1-2.92,1.537H42.464c.154-.82.307-1.69.461-2.51.1-.512.256-1.076.307-1.588.1-.512.256-1.076.307-1.588.1-.512.256-1.076.307-1.588.1-.512.145-.794.256-1.588.111-.913.043-.948.563-.922l3.842-.1c1.639,0,4.2.871,4.2,3.227ZM83.135,16.9l7.683,31.6H83.9l-1.229-6.2H69.3l-4.1,6.2H59.47L80.881,16.9h2.254Zm-30.58,0c4.61.512,6.761,2.664,6.761,6.249,0,3.842-2.664,6.71-7.325,8.247a.308.308,0,0,0,.2.051c3.432.512,5.891,2.51,5.891,5.634,0,4.969-3.073,9.579-9.732,11.064a28.638,28.638,0,0,1-3.073.461H32.219L38.827,16.9H52.555Zm-41.644,0c-.512,2.715-1.076,5.276-1.588,7.837-.41,1.9-.82,3.893-1.178,5.839-.512,2.869-1.332,5.635-1.332,8.5,0,3.125,1.025,5.942,5.071,5.942,3.893,0,7.735-2.561,8.964-7.786,1.588-6.761,2.92-13.574,4.354-20.336h5.839v.154c-1.639,7.427-3.176,14.855-4.866,22.231a10.855,10.855,0,0,1-2,3.637,14.669,14.669,0,0,1-10.706,6.044c-.41.051-1.127.154-1.281.154H9.066c-.615-.051-1.281-.154-1.844-.256s-1.178-.256-1.742-.41C1.537,47.484,0,43.693,0,40.876V39.647c.051-.359.051-.768.1-1.178C1.588,31.3,3.073,24.075,4.559,16.9H10.91ZM117.1,48.3c-.82.1-2.407.307-2.561.307H101.78L110.385,8.2c4.508,8.81,9.015,17.723,13.472,26.636a17.165,17.165,0,0,1,1.485,6.044c0,4.456-3.125,6.608-8.247,7.427Zm18.338-7.888c-2.612-5.071-5.225-10.193-7.786-15.264-1.434-2.817-2.868-5.737-4.3-8.5-.461-.973-.973-1.844-1.383-2.766a20.162,20.162,0,0,1-1.485-5.634V7.171a7.91,7.91,0,0,1,.256-1.588C122.269.717,127.955.256,131.336,0H144.09Z"/></svg>